<svg style="position: absolute; width: 0; height: 0; overflow: hidden;" version="1.1"
     xmlns="http://www.w3.org/2000/svg" xmlns:xlink="http://www.w3.org/1999/xlink">
  <defs>
    <symbol id="icon-pencil" viewBox="0 0 32 32">
      <title>pencil</title>
      <path
        d="M30.173 7.542l-0.314 0.314-5.726-5.729 0.313-0.313c0 0 1.371-1.813 3.321-1.813 0.859 0 1.832 0.353 2.849 1.37 3.354 3.354-0.443 6.171-0.443 6.171zM27.979 9.737l-19.499 19.506-8.48 2.757 2.756-8.485v-0.003h0.002l19.496-19.505 0.252 0.253zM2.76 29.239l4.237-1.219-2.894-3.082-1.343 4.301z"></path>
    </symbol>
    <symbol id="icon-image" viewBox="0 0 32 32">
      <title>image</title>
      <path
        d="M29.996 4c0.001 0.001 0.003 0.002 0.004 0.004v23.993c-0.001 0.001-0.002 0.003-0.004 0.004h-27.993c-0.001-0.001-0.003-0.002-0.004-0.004v-23.993c0.001-0.001 0.002-0.003 0.004-0.004h27.993zM30 2h-28c-1.1 0-2 0.9-2 2v24c0 1.1 0.9 2 2 2h28c1.1 0 2-0.9 2-2v-24c0-1.1-0.9-2-2-2v0z"></path>
      <path d="M26 9c0 1.657-1.343 3-3 3s-3-1.343-3-3 1.343-3 3-3 3 1.343 3 3z"></path>
      <path d="M28 26h-24v-4l7-12 8 10h2l7-6z"></path>
    </symbol>
    <symbol id="icon-bin" viewBox="0 0 32 32">
      <title>bin</title>
      <path d="M4 10v20c0 1.1 0.9 2 2 2h18c1.1 0 2-0.9 2-2v-20h-22zM10 28h-2v-14h2v14zM14 28h-2v-14h2v14zM18 28h-2v-14h2v14zM22 28h-2v-14h2v14z"></path>
      <path d="M26.5 4h-6.5v-2.5c0-0.825-0.675-1.5-1.5-1.5h-7c-0.825 0-1.5 0.675-1.5 1.5v2.5h-6.5c-0.825 0-1.5 0.675-1.5 1.5v2.5h26v-2.5c0-0.825-0.675-1.5-1.5-1.5zM18 4h-6v-1.975h6v1.975z"></path>
    </symbol>
  </defs>
</svg>
